<?xml version="1.0" standalone="no"?><!DOCTYPE svg PUBLIC "-//W3C//DTD SVG 1.1//EN" "http://www.w3.org/Graphics/SVG/1.1/DTD/svg11.dtd"><svg t="1639710844482" class="icon" viewBox="0 0 1024 1024" version="1.1" xmlns="http://www.w3.org/2000/svg" p-id="65371" xmlns:xlink="http://www.w3.org/1999/xlink" width="200" height="200"><defs><style type="text/css"></style></defs><path d="M523.377778 224.369778a22.755556 22.755556 0 0 0-22.755556 0L241.208889 373.703111a22.755556 22.755556 0 0 0 0 39.424L500.622222 562.517333a22.755556 22.755556 0 0 0 22.755556 0l259.413333-149.390222a22.755556 22.755556 0 0 0 0-39.424L523.377778 224.369778z m28.387555-49.322667l259.413334 149.333333a79.644444 79.644444 0 0 1 0 138.069334l-259.413334 149.390222a79.644444 79.644444 0 0 1-79.530666 0l-259.413334-149.390222a79.644444 79.644444 0 0 1 0-138.069334l259.413334-149.333333a79.644444 79.644444 0 0 1 79.530666 0z" p-id="65372" fill="#aad08f"></path><path d="M746.780444 480.995556l28.444445-49.322667 35.953778 20.707555a79.644444 79.644444 0 0 1 0 138.069334l-259.413334 149.390222a79.644444 79.644444 0 0 1-79.530666 0l-259.413334-149.390222a79.644444 79.644444 0 0 1 0-138.069334l38.115556-21.902222 28.387555 49.322667-38.115555 21.902222a22.755556 22.755556 0 0 0 0 39.424l259.413333 149.390222a22.755556 22.755556 0 0 0 22.755556 0l259.413333-149.390222a22.755556 22.755556 0 0 0 0-39.424l-36.010667-20.707555z" p-id="65373" fill="#aad08f"></path><path d="M746.780444 620.316444l28.444445-49.265777 35.953778 20.707555a79.644444 79.644444 0 0 1 0 138.012445l-259.413334 149.390222a79.644444 79.644444 0 0 1-79.530666 0l-259.413334-149.390222a79.644444 79.644444 0 0 1 0-138.012445l38.115556-21.959111 28.387555 49.322667-38.115555 21.902222a22.755556 22.755556 0 0 0 0 39.480889l259.413333 149.333333a22.755556 22.755556 0 0 0 22.755556 0l259.413333-149.333333a22.755556 22.755556 0 0 0 0-39.480889l-36.010667-20.707556z" p-id="65374" fill="#aad08f"></path></svg>